<?xml version="1.0" encoding="UTF-8" standalone="no"?> <svg xmlns="http://www.w3.org/2000/svg" viewBox="0 0 48 48"><g id="Spray"><path d="M29.484,2.841,26.72,2.148A5.064,5.064,0,0,0,25.508,2H16A7.009,7.009,0,0,0,9,9a2,2,0,0,0,2,2h3v6a1,1,0,0,0-.914.594L9.775,25.043A8.96,8.96,0,0,0,9,28.7V43a5.006,5.006,0,0,0,5,5H26a5.006,5.006,0,0,0,5-5V34.807a9.033,9.033,0,0,0-1.972-5.623l-4.494-5.618A7.024,7.024,0,0,1,23,19.194V18a1,1,0,0,0-1-1V13.4A5.864,5.864,0,0,0,26,15a1,1,0,0,0,0-2,3.844,3.844,0,0,1-2.559-1H25a2,2,0,0,0,2-2V9.781l2.484-.622A2,2,0,0,0,31,7.219V4.781A2,2,0,0,0,29.484,2.841ZM22.972,24.816l4.494,5.618A7.027,7.027,0,0,1,29,34.807V43a3,3,0,0,1-3,3H14a3,3,0,0,1-3-3V28.7a6.96,6.96,0,0,1,.6-2.843L14.649,19H21v.194A9.033,9.033,0,0,0,22.972,24.816ZM16,17V15h4v2Zm9-7H23a3,3,0,0,0-3,3H16V11a2,2,0,0,0-2-2H11a5.006,5.006,0,0,1,5-5h9v6Zm4-2.78-2,.5V4.28l2,.5Z"/><path d="M13,35v6a2,2,0,0,0,2,2H25a2,2,0,0,0,2-2V35a2,2,0,0,0-2-2H15A2,2,0,0,0,13,35Zm12,6H15V35H25Z"/><path d="M34,7h4a1,1,0,0,0,0-2H34a1,1,0,0,0,0,2Z"/><path d="M34,4a1,1,0,0,0,.446-.1l4-2a1,1,0,1,0-.894-1.79l-4,2A1,1,0,0,0,34,4Z"/><path d="M38.447,10.105l-4-2a1,1,0,0,0-.894,1.79l4,2a1,1,0,1,0,.894-1.79Z"/></g></svg>